<svg width="1081" height="274" viewBox="0 0 1081 274" fill="none" xmlns="http://www.w3.org/2000/svg">
<path d="M18.2549 40.248C16.2472 40.248 14.5781 41.7944 14.4249 43.7962L7.318 137.006L6.94547 141.889C6.77615 144.12 8.53876 146.023 10.7755 146.023H72.8943C74.9021 146.023 76.5711 144.476 76.7243 142.473L76.7469 142.181L78.9353 113.477C79.0869 111.476 80.7559 109.929 82.7637 109.929H111.457C111.557 109.929 111.656 109.933 111.756 109.934C129.419 110.094 142.602 124.468 141.252 142.181C139.901 159.896 124.526 174.265 106.839 174.424C106.739 174.426 106.639 174.434 106.54 174.434H74.2876H8.02272C6.01499 174.434 4.34752 175.981 4.19432 177.984L0.256252 229.633C0.0869247 231.862 1.84954 233.765 4.08465 233.765H96.7001C96.9968 233.765 97.2919 233.747 97.5887 233.745C150.653 233.266 196.784 190.148 200.835 137.006C204.887 83.8657 165.331 40.7468 112.339 40.2682C112.043 40.2655 111.751 40.248 111.454 40.248H18.2549Z" fill="url(#paint0_linear_1053_158)"/>
<path d="M313.862 210.294C302.14 210.294 292.124 207.846 283.814 202.949C275.653 197.904 269.421 191.078 265.117 182.472C260.962 173.865 258.885 164.146 258.885 153.314C258.885 142.482 260.962 132.762 265.117 124.156C269.421 115.549 275.579 108.798 283.591 103.901C291.604 99.0044 301.324 96.556 312.749 96.556C325.659 96.556 336.269 99.7463 344.578 106.127C352.888 112.359 358.304 120.224 360.827 129.72H361.717H365.946V153.314H361.717C361.717 138.475 357.488 126.827 349.03 118.369C340.72 109.911 329.295 105.682 314.753 105.682C305.998 105.682 298.133 107.166 291.159 110.133C284.185 113.101 278.695 118.072 274.688 125.046C270.83 132.02 268.901 141.443 268.901 153.314C268.901 165.333 270.83 174.83 274.688 181.804C278.546 188.63 283.962 193.601 290.937 196.717C298.059 199.685 306.146 201.169 315.198 201.169C324.398 201.169 332.485 199.388 339.459 195.827C346.433 192.117 351.849 186.849 355.707 180.023C359.714 173.049 361.717 164.888 361.717 155.54H365.946L366.169 174.904H363.053H362.162C359.491 185.885 353.778 194.565 345.024 200.946C336.269 207.178 325.882 210.294 313.862 210.294ZM371.511 208.069H363.053V174.904V170.898L361.717 168.004V155.54V153.314V129.72V58.9399H371.511V208.069Z" fill="black"/>
<path d="M493.387 208.069H484.706V177.13V176.907L484.039 175.572V158.433V156.461V149.117V139.291C484.039 127.42 481.219 118.814 475.581 113.472C469.942 108.13 460.594 105.459 447.536 105.459C434.626 105.459 424.684 107.982 417.71 113.027C410.736 118.072 407.249 126.011 407.249 136.843V137.956H397.455V136.843C397.455 129.572 399.384 122.895 403.242 116.811C407.1 110.727 412.813 105.83 420.381 102.12C427.949 98.4108 437.149 96.556 447.981 96.556C458.813 96.556 467.494 98.485 474.023 102.343C480.7 106.053 485.597 111.098 488.713 117.479C491.829 123.711 493.387 130.611 493.387 138.178V208.069ZM430.397 210.294C420.01 210.294 411.478 207.92 404.8 203.172C398.123 198.275 394.784 191.523 394.784 182.917C394.784 176.685 396.342 171.714 399.458 168.004C402.723 164.295 407.026 161.475 412.368 159.546C417.71 157.469 423.571 156.059 429.952 155.317L484.039 149.117L486.265 148.862V156.207L484.039 156.461L433.513 162.217C423.868 163.107 416.597 164.962 411.7 167.782C406.952 170.453 404.578 175.275 404.578 182.249C404.578 188.63 406.729 193.527 411.032 196.94C415.484 200.352 422.458 202.059 431.955 202.059C441.303 202.059 449.836 200.501 457.552 197.385C465.416 194.12 471.797 189.298 476.694 182.917C481.59 176.388 484.039 168.227 484.039 158.433L487.155 159.991V177.13H484.706H484.039C480.329 187.665 473.726 195.827 464.229 201.614C454.732 207.401 443.455 210.294 430.397 210.294Z" fill="black"/>
<path d="M625.588 208.069H615.571V145.078C615.571 132.762 612.455 123.117 606.223 116.143C599.991 109.02 590.197 105.459 576.842 105.459C562.449 105.459 551.394 109.911 543.678 118.814C535.962 127.717 532.104 140.033 532.104 155.762L527.875 155.985L528.543 133.282H530.768H531.659C532.994 127.049 535.665 121.114 539.672 115.475C543.678 109.837 548.946 105.311 555.475 101.898C562.152 98.3366 569.943 96.556 578.846 96.556C589.233 96.556 597.839 98.856 604.665 103.456C611.639 107.908 616.833 113.843 620.246 121.262C623.807 128.682 625.588 136.843 625.588 145.746V208.069ZM532.104 208.069H522.088V98.7818H530.768V133.282V133.727L532.104 134.84V155.762V208.069Z" fill="black"/>
<path d="M706.551 210.294C694.829 210.294 684.59 207.846 675.835 202.949C667.08 197.904 660.254 191.078 655.358 182.472C650.461 173.865 648.013 164.146 648.013 153.314C648.013 142.482 650.461 132.762 655.358 124.156C660.254 115.549 667.08 108.798 675.835 103.901C684.59 99.0044 694.829 96.556 706.551 96.556C718.422 96.556 728.661 99.0044 737.267 103.901C746.022 108.798 752.848 115.549 757.745 124.156C762.641 132.762 765.09 142.482 765.09 153.314C765.09 164.146 762.641 173.865 757.745 182.472C752.848 191.078 746.022 197.904 737.267 202.949C728.661 207.846 718.422 210.294 706.551 210.294ZM706.551 201.391C723.022 201.391 735.264 197.014 743.277 188.259C751.29 179.504 755.296 167.856 755.296 153.314C755.296 138.92 751.29 127.346 743.277 118.591C735.264 109.837 723.022 105.459 706.551 105.459C690.08 105.459 677.838 109.837 669.825 118.591C661.812 127.346 657.806 138.92 657.806 153.314C657.806 167.856 661.812 179.504 669.825 188.259C677.838 197.014 690.08 201.391 706.551 201.391Z" fill="black"/>
<path d="M849.155 248.133C839.214 248.133 830.236 246.501 822.223 243.236C814.359 239.972 808.127 235.372 803.527 229.436C798.927 223.501 796.627 216.23 796.627 207.624H812.43C812.43 214.004 813.839 219.198 816.659 223.204C819.478 227.211 823.633 230.104 829.123 231.885C834.762 233.665 841.662 234.556 849.823 234.556C859.32 234.556 866.962 233.443 872.749 231.217C878.684 228.991 882.913 225.207 885.436 219.865C888.107 214.672 889.443 207.549 889.443 198.498V169.785V148.195V144.411V135.285L891.001 133.282V126.382V98.1141H905.246V197.607C905.246 209.775 902.871 219.494 898.123 226.765C893.375 234.185 886.772 239.601 878.313 243.014C870.004 246.427 860.284 248.133 849.155 248.133ZM842.255 199.166C831.275 199.166 821.852 196.94 813.988 192.488C806.123 188.036 800.039 181.953 795.736 174.237C791.581 166.52 789.504 157.617 789.504 147.527C789.504 137.437 791.656 128.533 795.959 120.817C800.41 113.101 806.717 107.017 814.878 102.566C823.039 98.1141 832.759 95.8884 844.036 95.8884C855.61 95.8884 865.552 98.5593 873.862 103.901C882.32 109.243 887.662 116.737 889.888 126.382H891.001H894.562L893.672 144.411H889.443C889.443 137.14 887.662 130.982 884.101 125.937C880.688 120.743 875.865 116.811 869.633 114.14C863.549 111.321 856.204 109.911 847.597 109.911C839.436 109.911 832.165 111.098 825.785 113.472C819.404 115.846 814.359 119.779 810.649 125.269C807.088 130.759 805.307 138.179 805.307 147.527C805.307 156.875 807.088 164.295 810.649 169.785C814.21 175.275 819.033 179.207 825.117 181.582C831.349 183.956 838.472 185.143 846.484 185.143C859.988 185.143 870.523 181.953 878.091 175.572C885.659 169.043 889.443 159.917 889.443 148.195H893.672V169.785H889.443H888.33C886.104 178.243 880.984 185.291 872.972 190.93C865.107 196.42 854.868 199.166 842.255 199.166Z" fill="black"/>
<path d="M968.065 210.294C956.195 210.294 945.733 207.846 936.682 202.949C927.778 198.053 920.804 191.301 915.759 182.695C910.862 174.088 908.414 164.22 908.414 153.091C908.414 141.962 910.862 132.095 915.759 123.488C920.804 114.882 927.778 108.13 936.682 103.233C945.733 98.3367 956.195 95.8884 968.065 95.8884C980.233 95.8884 990.769 98.3367 999.672 103.233C1008.58 108.13 1015.47 114.882 1020.37 123.488C1025.42 132.095 1027.94 141.962 1027.94 153.091C1027.94 164.22 1025.42 174.088 1020.37 182.695C1015.47 191.301 1008.58 198.053 999.672 202.949C990.769 207.846 980.233 210.294 968.065 210.294ZM968.065 196.049C983.349 196.049 994.552 192.266 1001.68 184.698C1008.8 176.982 1012.36 166.446 1012.36 153.091C1012.36 139.737 1008.8 129.275 1001.68 121.708C994.552 113.992 983.349 110.133 968.065 110.133C953.078 110.133 941.949 113.992 934.678 121.708C927.556 129.275 923.995 139.737 923.995 153.091C923.995 166.446 927.556 176.982 934.678 184.698C941.949 192.266 953.078 196.049 968.065 196.049Z" fill="black"/>
<path d="M1067.8 159.101H1053.1C1053.1 154.204 1053.03 148.714 1052.88 142.63C1052.73 136.546 1052.51 130.24 1052.21 123.711C1051.92 117.182 1051.62 110.875 1051.32 104.792C1051.18 98.5593 1051.03 92.8464 1050.88 87.6529C1050.73 82.311 1050.66 77.9336 1050.66 74.5207V58.9401H1070.24V74.5207C1070.24 77.9336 1070.17 82.311 1070.02 87.6529C1069.87 92.8464 1069.65 98.5593 1069.35 104.792C1069.2 111.024 1068.98 117.404 1068.69 123.933C1068.39 130.314 1068.17 136.546 1068.02 142.63C1067.87 148.714 1067.8 154.204 1067.8 159.101ZM1069.35 208.069H1051.55V178.02H1069.35V208.069Z" fill="black"/>
<path fill-rule="evenodd" clip-rule="evenodd" d="M283.814 202.949C292.124 207.846 302.14 210.294 313.862 210.294C325.882 210.294 336.269 207.178 345.024 200.946C353.778 194.565 359.491 185.885 362.162 174.904H363.053V208.069H371.511V58.9399H361.717V129.72H360.827C358.304 120.224 352.888 112.359 344.578 106.127C336.269 99.7463 325.659 96.556 312.749 96.556C301.324 96.556 291.604 99.0044 283.591 103.901C275.579 108.798 269.421 115.549 265.117 124.156C260.962 132.762 258.885 142.482 258.885 153.314C258.885 164.146 260.962 173.865 265.117 182.472C269.421 191.078 275.653 197.904 283.814 202.949ZM484.706 208.069H493.387V138.178C493.387 130.611 491.829 123.711 488.713 117.479C485.597 111.098 480.7 106.053 474.023 102.343C467.494 98.485 458.813 96.556 447.981 96.556C437.149 96.556 427.949 98.4108 420.381 102.12C412.813 105.83 407.1 110.727 403.242 116.811C399.384 122.895 397.455 129.572 397.455 136.843V137.956H407.249V136.843C407.249 126.011 410.736 118.072 417.71 113.027C424.684 107.982 434.626 105.459 447.536 105.459C460.594 105.459 469.942 108.13 475.581 113.472C481.219 118.814 484.039 127.42 484.039 139.291V149.117L429.952 155.317C423.571 156.059 417.71 157.469 412.368 159.546C407.026 161.475 402.723 164.295 399.458 168.004C396.342 171.714 394.784 176.685 394.784 182.917C394.784 191.523 398.123 198.275 404.8 203.172C411.478 207.92 420.01 210.294 430.397 210.294C443.455 210.294 454.732 207.401 464.229 201.614C473.726 195.827 480.329 187.665 484.039 177.13H484.706V208.069ZM615.571 208.069H625.588V145.746C625.588 136.843 623.807 128.682 620.246 121.262C616.833 113.843 611.639 107.908 604.665 103.456C597.839 98.856 589.233 96.556 578.846 96.556C569.943 96.556 562.152 98.3366 555.475 101.898C548.946 105.311 543.678 109.837 539.672 115.475C535.665 121.114 532.994 127.049 531.659 133.282H530.768V98.7818H522.088V208.069H532.104V155.762C532.104 140.033 535.962 127.717 543.678 118.814C551.394 109.911 562.449 105.459 576.842 105.459C590.197 105.459 599.991 109.02 606.223 116.143C612.455 123.117 615.571 132.762 615.571 145.078V208.069ZM706.551 210.294C694.829 210.294 684.59 207.846 675.835 202.949C667.08 197.904 660.254 191.078 655.358 182.472C650.461 173.865 648.013 164.146 648.013 153.314C648.013 142.482 650.461 132.762 655.358 124.156C660.254 115.549 667.08 108.798 675.835 103.901C684.59 99.0044 694.829 96.556 706.551 96.556C718.422 96.556 728.661 99.0044 737.267 103.901C746.022 108.798 752.848 115.549 757.745 124.156C762.641 132.762 765.09 142.482 765.09 153.314C765.09 164.146 762.641 173.865 757.745 182.472C752.848 191.078 746.022 197.904 737.267 202.949C728.661 207.846 718.422 210.294 706.551 210.294ZM822.223 243.236C830.236 246.501 839.214 248.133 849.155 248.133C860.284 248.133 870.004 246.427 878.313 243.014C886.772 239.601 893.375 234.185 898.123 226.765C902.871 219.494 905.246 209.775 905.246 197.607V98.1141H891.001V126.382H889.888C887.662 116.737 882.32 109.243 873.862 103.901C865.552 98.5593 855.61 95.8884 844.036 95.8884C832.759 95.8884 823.039 98.1141 814.878 102.566C806.717 107.017 800.41 113.101 795.959 120.817C791.656 128.533 789.504 137.437 789.504 147.527C789.504 157.617 791.581 166.52 795.736 174.237C800.039 181.953 806.123 188.036 813.988 192.488C821.852 196.94 831.275 199.166 842.255 199.166C854.868 199.166 865.107 196.42 872.972 190.93C880.984 185.291 886.104 178.243 888.33 169.785H889.443V198.498C889.443 207.549 888.107 214.672 885.436 219.865C882.913 225.207 878.684 228.991 872.749 231.217C866.962 233.443 859.32 234.556 849.823 234.556C841.662 234.556 834.762 233.665 829.123 231.885C823.633 230.104 819.478 227.211 816.659 223.204C813.839 219.198 812.43 214.004 812.43 207.624H796.627C796.627 216.23 798.927 223.501 803.527 229.436C808.127 235.372 814.359 239.972 822.223 243.236ZM968.065 210.294C956.195 210.294 945.733 207.846 936.682 202.949C927.778 198.053 920.804 191.301 915.759 182.695C910.862 174.088 908.414 164.22 908.414 153.091C908.414 141.962 910.862 132.095 915.759 123.488C920.804 114.882 927.778 108.13 936.682 103.233C945.733 98.3367 956.195 95.8884 968.065 95.8884C980.233 95.8884 990.769 98.3367 999.672 103.233C1008.58 108.13 1015.47 114.882 1020.37 123.488C1025.42 132.095 1027.94 141.962 1027.94 153.091C1027.94 164.22 1025.42 174.088 1020.37 182.695C1015.47 191.301 1008.58 198.053 999.672 202.949C990.769 207.846 980.233 210.294 968.065 210.294ZM1067.8 159.101H1053.1C1053.1 154.204 1053.03 148.714 1052.88 142.63C1052.73 136.546 1052.51 130.24 1052.21 123.711C1051.92 117.182 1051.62 110.875 1051.32 104.792C1051.18 98.5593 1051.03 92.8464 1050.88 87.6529C1050.73 82.311 1050.66 77.9336 1050.66 74.5207V58.9401H1070.24V74.5207C1070.24 77.9336 1070.17 82.311 1070.02 87.6529C1069.87 92.8464 1069.65 98.5593 1069.35 104.792C1069.2 111.024 1068.98 117.404 1068.69 123.933C1068.39 130.314 1068.17 136.546 1068.02 142.63C1067.87 148.714 1067.8 154.204 1067.8 159.101ZM1069.35 208.069H1051.55V178.02H1069.35V208.069ZM361.717 153.314C361.717 138.475 357.488 126.827 349.03 118.369C340.72 109.911 329.295 105.682 314.753 105.682C305.998 105.682 298.133 107.166 291.159 110.133C284.185 113.101 278.695 118.072 274.688 125.046C270.83 132.02 268.901 141.443 268.901 153.314C268.901 165.333 270.83 174.83 274.688 181.804C278.546 188.63 283.962 193.601 290.937 196.717C298.059 199.685 306.146 201.169 315.198 201.169C324.398 201.169 332.485 199.388 339.459 195.827C346.433 192.117 351.849 186.849 355.707 180.023C359.714 173.049 361.717 164.888 361.717 155.54V153.314ZM484.039 156.461V158.433C484.039 168.227 481.59 176.388 476.694 182.917C471.797 189.298 465.416 194.12 457.552 197.385C449.836 200.501 441.303 202.059 431.955 202.059C422.458 202.059 415.484 200.352 411.032 196.94C406.729 193.527 404.578 188.63 404.578 182.249C404.578 175.275 406.952 170.453 411.7 167.782C416.597 164.962 423.868 163.107 433.513 162.217L484.039 156.461ZM706.551 201.391C723.022 201.391 735.264 197.014 743.277 188.259C751.29 179.504 755.296 167.856 755.296 153.314C755.296 138.92 751.29 127.346 743.277 118.591C735.264 109.837 723.022 105.459 706.551 105.459C690.08 105.459 677.838 109.837 669.825 118.591C661.812 127.346 657.806 138.92 657.806 153.314C657.806 167.856 661.812 179.504 669.825 188.259C677.838 197.014 690.08 201.391 706.551 201.391ZM889.443 144.411V148.195C889.443 159.917 885.659 169.043 878.091 175.572C870.523 181.953 859.988 185.143 846.484 185.143C838.472 185.143 831.349 183.956 825.117 181.582C819.033 179.207 814.21 175.275 810.649 169.785C807.088 164.295 805.307 156.875 805.307 147.527C805.307 138.179 807.088 130.759 810.649 125.269C814.359 119.779 819.404 115.846 825.785 113.472C832.165 111.098 839.436 109.911 847.597 109.911C856.204 109.911 863.549 111.321 869.633 114.14C875.865 116.811 880.688 120.743 884.101 125.937C887.662 130.982 889.443 137.14 889.443 144.411ZM968.065 196.049C983.349 196.049 994.552 192.266 1001.68 184.698C1008.8 176.982 1012.36 166.446 1012.36 153.091C1012.36 139.737 1008.8 129.275 1001.68 121.708C994.552 113.992 983.349 110.133 968.065 110.133C953.078 110.133 941.949 113.992 934.678 121.708C927.556 129.275 923.995 139.737 923.995 153.091C923.995 166.446 927.556 176.982 934.678 184.698C941.949 192.266 953.078 196.049 968.065 196.049Z" fill="url(#paint1_linear_1053_158)"/>
<defs>
<linearGradient id="paint0_linear_1053_158" x1="100.683" y1="40.248" x2="100.683" y2="202.818" gradientUnits="userSpaceOnUse">
<stop offset="0.0769231" stop-color="#002746"/>
<stop offset="0.25" stop-color="#13495E"/>
<stop offset="0.399413" stop-color="#276C76"/>
<stop offset="0.591405" stop-color="#3D9290"/>
<stop offset="0.860577" stop-color="#59C4B3"/>
<stop offset="1" stop-color="#9CFBD2"/>
</linearGradient>
<linearGradient id="paint1_linear_1053_158" x1="664.564" y1="58.9399" x2="664.564" y2="217.878" gradientUnits="userSpaceOnUse">
<stop offset="0.0769231" stop-color="#002746"/>
<stop offset="0.25" stop-color="#13495E"/>
<stop offset="0.399413" stop-color="#276C76"/>
<stop offset="0.591405" stop-color="#3D9290"/>
<stop offset="0.860577" stop-color="#59C4B3"/>
<stop offset="1" stop-color="#9CFBD2"/>
</linearGradient>
</defs>
</svg>
